<svg version="1.1" xmlns="http://www.w3.org/2000/svg" xmlns:xlink="http://www.w3.org/1999/xlink" width="51.80372" height="131.11796" viewBox="0,0,51.80372,131.11796"><g transform="translate(-214.09814,-148)"><g data-paper-data="{&quot;isPaintingLayer&quot;:true}" fill-rule="nonzero" stroke-linejoin="miter" stroke-miterlimit="10" stroke-dasharray="" stroke-dashoffset="0" style="mix-blend-mode: normal"><path d="M225.34814,168v-2.75h10v2.75z" data-paper-data="{&quot;index&quot;:null}" fill="#000000" stroke="none" stroke-width="0" stroke-linecap="butt"/><path d="M228.59814,165.5v-17.5h4v17.5z" data-paper-data="{&quot;index&quot;:null}" fill="#000000" stroke="none" stroke-width="0" stroke-linecap="butt"/><path d="M214.09814,180v-5.5h10.5v5.5z" data-paper-data="{&quot;index&quot;:null}" fill="#fbff00" stroke="none" stroke-width="0" stroke-linecap="butt"/><path d="M262.84815,210l-4,-3.25v-12" data-paper-data="{&quot;index&quot;:null}" fill="none" stroke="#ffe158" stroke-width="2" stroke-linecap="round"/><path d="M254.59815,209.75l4.25,-3.5v5.25" data-paper-data="{&quot;index&quot;:null}" fill="none" stroke="#ffe158" stroke-width="2" stroke-linecap="round"/><path d="M244.09815,210.5l-4,-3.25v-12" data-paper-data="{&quot;index&quot;:null}" fill="none" stroke="#ffe158" stroke-width="2" stroke-linecap="round"/><path d="M235.84815,210.25l4.25,-3.5v5.25" data-paper-data="{&quot;index&quot;:null}" fill="none" stroke="#ffe158" stroke-width="2" stroke-linecap="round"/><path d="M232.23537,199.37402v-21.67918h33.66649v21.67918z" data-paper-data="{&quot;index&quot;:null}" fill="#ffffff" stroke="none" stroke-width="0" stroke-linecap="butt"/><path d="M223.64163,182.07052v-13.77265h13.51761v13.77265z" data-paper-data="{&quot;index&quot;:null}" fill="#ffffff" stroke="none" stroke-width="0" stroke-linecap="butt"/><path d="M224.84815,174v-4.25h2.75v4.25z" data-paper-data="{&quot;index&quot;:null}" fill="#000000" stroke="none" stroke-width="0" stroke-linecap="butt"/><path d="M223.82298,174.95129v-1.8156h4.99291v1.8156z" fill="#b0f9ff" stroke="none" stroke-width="none" stroke-linecap="butt"/><path d="M225.41164,279.11796v-104.84752h1.8156v104.84752z" fill="#b0f9ff" stroke="none" stroke-width="0" stroke-linecap="butt"/></g></g></svg>