<svg version="1.1" xmlns="http://www.w3.org/2000/svg" xmlns:xlink="http://www.w3.org/1999/xlink" width="506" height="383" viewBox="0,0,506,383"><g transform="translate(11.30558,10.34377)"><g data-paper-data="{&quot;isPaintingLayer&quot;:true}" fill-rule="nonzero" stroke-linejoin="miter" stroke-miterlimit="10" stroke-dasharray="" stroke-dashoffset="0" style="mix-blend-mode: normal"><path d="M-11.30557,372.65624v-383h506v383z" fill="#acbcff" stroke="none" stroke-width="0" stroke-linecap="butt"/><path d="M47.69443,157.65623l1,-109l37,-2l-3,37l-30,4" fill="none" stroke="#8bf55d" stroke-width="16" stroke-linecap="round"/><path d="M157.69443,71.65623h-55l-1,92l51,-1" fill="none" stroke="#8bf55d" stroke-width="16" stroke-linecap="round"/><path d="M102.69443,119.65623l46,-1" fill="none" stroke="#8bf55d" stroke-width="16" stroke-linecap="round"/><path d="M180.69443,155.65623l3,-96" fill="none" stroke="#8bf55d" stroke-width="16" stroke-linecap="round"/><path d="M185.69443,77.65623l27,-12l20,11" fill="none" stroke="#8bf55d" stroke-width="16" stroke-linecap="round"/><path d="M259.69443,86.65623v83" fill="none" stroke="#8bf55d" stroke-width="16" stroke-linecap="round"/><path d="M240.69443,107.65623l48,3" fill="none" stroke="#8bf55d" stroke-width="16" stroke-linecap="round"/><path d="M353.69443,48.65623l-38,-1l-2,82l38,-3" fill="none" stroke="#8bf55d" stroke-width="16" stroke-linecap="round"/><path d="M317.69443,87.65623h19" fill="none" stroke="#8bf55d" stroke-width="16" stroke-linecap="round"/><path d="M402.69443,73.65623c0,0 -19.75349,-2.47335 -25.4116,7.17193c-4.07882,6.9531 -6.5884,13.48752 -6.5884,18.82807c0,5.18722 3.22606,20.49862 7.08684,27.39123c5.75211,10.26919 25.91316,4.60877 25.91316,4.60877" fill="none" stroke="#8bf55d" stroke-width="16" stroke-linecap="round"/><path d="M440.69443,64.65623l-2,65" fill="none" stroke="#8bf55d" stroke-width="16" stroke-linecap="round"/><path d="M412.69443,83.65623l50,2" fill="none" stroke="#8bf55d" stroke-width="16" stroke-linecap="round"/><path d="M45.69443,283.65623v-57l33,1v31l-29,-3" fill="none" stroke="#8bf55d" stroke-width="16" stroke-linecap="round"/><path d="M103.69443,285.65623l22,-49l25,43" fill="none" stroke="#8bf55d" stroke-width="16" stroke-linecap="round"/><path d="M99.69443,258.65623l53,-6" fill="none" stroke="#8bf55d" stroke-width="16" stroke-linecap="round"/><path d="M210.69443,292.65623l2,-55h29v22h-24" fill="none" stroke="#8bf55d" stroke-width="16" stroke-linecap="round"/><path d="M272.69443,287.65623l19,-44l19,47" fill="none" stroke="#8bf55d" stroke-width="16" stroke-linecap="round"/><path d="M266.69443,265.65623l51,-5" fill="none" stroke="#8bf55d" stroke-width="16" stroke-linecap="round"/><path d="M372.69443,224.65623l3,46" fill="none" stroke="#8bf55d" stroke-width="16" stroke-linecap="round"/><path d="M375.21943,292.93123v5" fill="none" stroke="#8bf55d" stroke-width="16" stroke-linecap="round"/></g></g></svg>